<svg xmlns="http://www.w3.org/2000/svg" viewBox="0 0 640 512"><!--!Font Awesome Pro 6.5.1 by @fontawesome - https://fontawesome.com License - https://fontawesome.com/license (Commercial License) Copyright 2024 Fonticons, Inc.--><path d="M0 128c0-8.8 7.2-16 16-16s16 7.2 16 16l0 96c0 8.8-7.2 16-16 16s-16-7.2-16-16l0-96zM0 482.3c0-64.2 33.9-120.4 84.7-151.8c8.6 7.8 17.9 14.8 27.7 21.1C65.4 375.4 32.9 423.8 32 480l64 0 0-32c0-26.5 21.5-48 48-48l160 0c26.5 0 48 21.5 48 48l0 32 36.1 0c10.3 11.2 22.1 21.9 35.4 31.5c-1.7 .3-3.5 .5-5.3 .5L29.7 512C13.3 512 0 498.7 0 482.3zM48 176c0-62.9 33.5-121 88-152.4s121.5-31.4 176 0S400 113.1 400 176c0 18.5-2.9 36.5-8.4 53.6l-36.4 14.6c-2 .8-4 1.7-5.9 2.8c12.1-21.3 18.7-45.6 18.7-71c0-51.4-27.4-99-72-124.7s-99.4-25.7-144 0S80 124.6 80 176s27.4 99 72 124.7s99.4 25.7 144 0c9.4-5.5 18.1-11.9 25.9-19.1c-1.3 4.7-1.9 9.6-1.9 14.6c0 8.2 .4 17.1 1.3 26.5c-3 2-6.1 3.9-9.3 5.8c-54.5 31.4-121.5 31.4-176 0S48 238.9 48 176zm48-16c0-35.3 28.7-64 64-64l128 0c35.3 0 64 28.7 64 64l0 16c0 61.9-50.1 112-112 112l-32 0c-61.9 0-112-50.1-112-112l0-16zm32 0l0 16c0 44.2 35.8 80 80 80l32 0c44.2 0 80-35.8 80-80l0-16c0-17.7-14.3-32-32-32l-128 0c-17.7 0-32 14.3-32 32zm0 288l0 32 32 0 0-16c0-8.8 7.2-16 16-16s16 7.2 16 16l0 16 64 0 0-16c0-8.8 7.2-16 16-16s16 7.2 16 16l0 16 32 0 0-32c0-8.8-7.2-16-16-16l-160 0c-8.8 0-16 7.2-16 16zm24-272c0-3.4 2.2-6.4 5.5-7.3l21.2-6 6-21.2c.9-3.3 3.9-5.5 7.3-5.5s6.4 2.2 7.3 5.5l6 21.2 21.2 6c3.3 .9 5.5 3.9 5.5 7.3s-2.2 6.4-5.5 7.3l-21.2 6-6 21.2c-.9 3.3-3.9 5.5-7.3 5.5s-6.4-2.2-7.3-5.5l-6-21.2-21.2-6c-3.3-.9-5.5-3.9-5.5-7.3zM352 296c0-9.8 6-18.6 15.1-22.3l120-48c5.7-2.3 12.1-2.3 17.8 0l120 48C634 277.4 640 286.2 640 296c0 63.3-25.9 168.8-134.8 214.2c-5.9 2.5-12.6 2.5-18.5 0C377.9 464.8 352 359.3 352 296zm32.1 5.4c1.3 53 22.6 129.5 95.9 170L480 263l-95.9 38.4zM416 128c0-8.8 7.2-16 16-16s16 7.2 16 16l0 79.1-32 12.8 0-91.9zm96 135l0 208.4c73.4-40.5 94.6-117.1 95.9-170L512 263z"/></svg>