<svg xmlns="http://www.w3.org/2000/svg" viewBox="0 0 640 512"><!--!Font Awesome Pro 6.5.1 by @fontawesome - https://fontawesome.com License - https://fontawesome.com/license (Commercial License) Copyright 2024 Fonticons, Inc.--><path d="M0 128c0-8.8 7.2-16 16-16s16 7.2 16 16l0 96c0 8.8-7.2 16-16 16s-16-7.2-16-16l0-96zM0 482.3c0-64.2 33.9-120.4 84.7-151.8c8.6 7.8 17.9 14.8 27.7 21.1C65.4 375.4 32.9 423.8 32 480l64 0 0-32c0-26.5 21.5-48 48-48l160 0c26.5 0 48 21.5 48 48l0 32 32 0c0 11.7 3.1 22.6 8.6 32L29.7 512C13.3 512 0 498.7 0 482.3zM48 176c0-62.9 33.5-121 88-152.4s121.5-31.4 176 0S400 113.1 400 176s-33.5 121-88 152.4s-121.5 31.4-176 0S48 238.9 48 176zm32 0c0 51.4 27.4 99 72 124.7s99.4 25.7 144 0s72-73.3 72-124.7s-27.4-99-72-124.7s-99.4-25.7-144 0S80 124.6 80 176zm16-16c0-35.3 28.7-64 64-64l128 0c35.3 0 64 28.7 64 64l0 16c0 61.9-50.1 112-112 112l-32 0c-61.9 0-112-50.1-112-112l0-16zm32 0l0 16c0 44.2 35.8 80 80 80l32 0c44.2 0 80-35.8 80-80l0-16c0-17.7-14.3-32-32-32l-128 0c-17.7 0-32 14.3-32 32zm0 288l0 32 32 0 0-16c0-8.8 7.2-16 16-16s16 7.2 16 16l0 16 64 0 0-16c0-8.8 7.2-16 16-16s16 7.2 16 16l0 16 32 0 0-32c0-8.8-7.2-16-16-16l-160 0c-8.8 0-16 7.2-16 16zm24-272c0-3.4 2.2-6.4 5.5-7.3l21.2-6 6-21.2c.9-3.3 3.9-5.5 7.3-5.5s6.4 2.2 7.3 5.5l6 21.2 21.2 6c3.3 .9 5.5 3.9 5.5 7.3s-2.2 6.4-5.5 7.3l-21.2 6-6 21.2c-.9 3.3-3.9 5.5-7.3 5.5s-6.4-2.2-7.3-5.5l-6-21.2-21.2-6c-3.3-.9-5.5-3.9-5.5-7.3zM335.5 351.6c9.8-6.3 19.1-13.3 27.7-21.1c7.4 4.6 14.5 9.7 21.1 15.3c-.2 2-.3 4.1-.3 6.2l0 39c-13.1-16.4-29.6-29.8-48.5-39.4zM416 128c0-8.8 7.2-16 16-16s16 7.2 16 16l0 65.6c-11.7 11.9-20.8 26.5-26.2 42.7c-3.5-2.9-5.8-7.4-5.8-12.3l0-96zm0 224c0-17.7 14.3-32 32-32l0-48c0-44.2 35.8-80 80-80s80 35.8 80 80l0 48c17.7 0 32 14.3 32 32l0 128c0 17.7-14.3 32-32 32l-160 0c-17.7 0-32-14.3-32-32l0-128zm32 0l0 128 160 0 0-128-160 0zm32-80l0 48 96 0 0-48c0-26.5-21.5-48-48-48s-48 21.5-48 48z"/></svg>