<svg xmlns="http://www.w3.org/2000/svg" viewBox="0 0 640 512"><!--!Font Awesome Pro 6.5.1 by @fontawesome - https://fontawesome.com License - https://fontawesome.com/license (Commercial License) Copyright 2024 Fonticons, Inc.--><path d="M0 128c0-8.8 7.2-16 16-16s16 7.2 16 16l0 96c0 8.8-7.2 16-16 16s-16-7.2-16-16l0-96zM0 482.3c0-64.2 33.9-120.4 84.7-151.8c8.6 7.8 17.9 14.8 27.7 21.1C65.4 375.4 32.9 423.8 32 480l64 0 0-32c0-26.5 21.5-48 48-48l160 0c7.1 0 13.9 1.5 19.9 4.3c-.5 10.4 1.8 21.1 7.5 30.9L352 470.9l0 9.1 5.4 0c13.5 20.1 38.1 28.9 60.6 23c.9 3 2 6 3.2 8.8c-1 .1-2 .2-3 .2L29.7 512C13.3 512 0 498.7 0 482.3zM48 176c0-62.9 33.5-121 88-152.4s121.5-31.4 176 0S400 113.1 400 176c0 19.7-3.3 38.8-9.4 56.9c-14.3 3.5-27.2 12.6-35.2 26.3l-24 41.6c-3.6 6.3-5.9 13-6.9 19.7c-4 2.8-8.2 5.4-12.5 7.9c-54.5 31.4-121.5 31.4-176 0S48 238.9 48 176zm32 0c0 51.4 27.4 99 72 124.7s99.4 25.7 144 0s72-73.3 72-124.7s-27.4-99-72-124.7s-99.4-25.7-144 0S80 124.6 80 176zm16-16c0-35.3 28.7-64 64-64l128 0c35.3 0 64 28.7 64 64l0 16c0 61.9-50.1 112-112 112l-32 0c-61.9 0-112-50.1-112-112l0-16zm32 0l0 16c0 44.2 35.8 80 80 80l32 0c44.2 0 80-35.8 80-80l0-16c0-17.7-14.3-32-32-32l-128 0c-17.7 0-32 14.3-32 32zm0 288l0 32 32 0 0-16c0-8.8 7.2-16 16-16s16 7.2 16 16l0 16 64 0 0-16c0-8.8 7.2-16 16-16s16 7.2 16 16l0 16 32 0 0-32c0-8.8-7.2-16-16-16l-160 0c-8.8 0-16 7.2-16 16zm24-272c0-3.4 2.2-6.4 5.5-7.3l21.2-6 6-21.2c.9-3.3 3.9-5.5 7.3-5.5s6.4 2.2 7.3 5.5l6 21.2 21.2 6c3.3 .9 5.5 3.9 5.5 7.3s-2.2 6.4-5.5 7.3l-21.2 6-6 21.2c-.9 3.3-3.9 5.5-7.3 5.5s-6.4-2.2-7.3-5.5l-6-21.2-21.2-6c-3.3-.9-5.5-3.9-5.5-7.3zM360.4 319.8L388.1 272c5.6-9.7 18-13.1 27.8-7.4c7 4 15.7 3.4 22.7-.7l.5-.3c7-4 11.9-11.2 11.9-19.2c0-11.2 9.1-20.3 20.3-20.3l55.3 0c11.3 0 20.4 9.1 20.4 20.4c0 8.1 4.9 15.3 11.9 19.4l.3 .2c7 4.1 15.8 4.8 22.8 .7c9.8-5.6 22.2-2.3 27.9 7.5l27.5 47.6c5.7 9.9 2.3 22.5-7.6 28.2l-.3 .2c-6.9 4-10.6 11.7-10.6 19.6l0 .1c0 8.2 3.8 16.2 10.9 20.3c9.9 5.7 13.3 18.3 7.6 28.2l-27.3 47.3c-5.7 9.9-18.6 13.2-28.5 7.5c-7-4-15.7-3.5-22.7 .6s-11.9 11.3-11.9 19.4c0 11.5-9.3 20.9-20.8 20.9l-54.6 0c-11.4 0-20.7-9.4-20.7-20.8c0-8.1-4.9-15.4-12-19.5c-7-4-15.7-4.6-22.7-.6c-9.9 5.7-22.6 2.4-28.3-7.5l-27.4-47.6c-5.7-9.8-2.3-22.3 7.5-28c7.1-4.1 10.9-12 10.8-20.1l0-.4c0-8-3.8-15.8-10.8-19.9c-9.8-5.7-13.2-18.2-7.6-28zm33 7.1c12 11 17.5 26.5 17.5 40.8l0 .3c0 14.3-5.4 29.9-17.5 41.1l17.2 29.8c15.6-5 31.9-2.1 44.4 5.1s23.3 19.9 26.8 36l34.4 0c3.5-16.1 14.2-28.8 26.7-36.1c12.6-7.3 29-10.1 44.6-5.1L604.7 409c-12.2-11.2-17.7-26.9-17.7-41.3l0-.1c0-14.3 5.6-29.8 17.7-40.8L587.4 297c-15.7 4.9-31.9 1.8-44.2-5.4l-.2-.1c-12.3-7.1-23-19.6-26.6-35.5l-34.6 0c-3.6 15.9-14.3 28.3-26.6 35.4l-.1 0-.4 .2c-12.3 7.2-28.4 10.2-44 5.4l-17.3 29.9zM416 128c0-8.8 7.2-16 16-16s16 7.2 16 16l0 69.3c-14.3 6.7-25.2 19.3-29.8 34.7c-1.4-2.4-2.2-5.1-2.2-8l0-96zm27 239.8c0-20 10.7-38.5 28-48.5s38.7-10 56 0s28 28.5 28 48.5s-10.7 38.5-28 48.5s-38.7 10-56 0s-28-28.5-28-48.5zm32 0c0 13.3 10.7 24 24 24s24-10.7 24-24s-10.7-24-24-24s-24 10.7-24 24z"/></svg>