<svg xmlns="http://www.w3.org/2000/svg" viewBox="0 0 640 512"><!--!Font Awesome Pro 6.5.1 by @fontawesome - https://fontawesome.com License - https://fontawesome.com/license (Commercial License) Copyright 2024 Fonticons, Inc.--><path d="M0 128c0-8.8 7.2-16 16-16s16 7.2 16 16l0 96c0 8.8-7.2 16-16 16s-16-7.2-16-16l0-96zM0 482.3c0-64.2 33.9-120.4 84.7-151.8c8.6 7.8 17.9 14.8 27.7 21.1C65.4 375.4 32.9 423.8 32 480l64 0 0-32c0-26.5 21.5-48 48-48l160 0c13.6 0 25.9 5.7 34.7 14.8l-17.3 69c-2.3 9.5-1.8 19.3 1.4 28.2L29.7 512C13.3 512 0 498.7 0 482.3zM48 176c0-62.9 33.5-121 88-152.4s121.5-31.4 176 0S400 113.1 400 176s-33.5 121-88 152.4s-121.5 31.4-176 0S48 238.9 48 176zm32 0c0 51.4 27.4 99 72 124.7s99.4 25.7 144 0s72-73.3 72-124.7s-27.4-99-72-124.7s-99.4-25.7-144 0S80 124.6 80 176zm16-16c0-35.3 28.7-64 64-64l128 0c35.3 0 64 28.7 64 64l0 16c0 61.9-50.1 112-112 112l-32 0c-61.9 0-112-50.1-112-112l0-16zm32 0l0 16c0 44.2 35.8 80 80 80l32 0c44.2 0 80-35.8 80-80l0-16c0-17.7-14.3-32-32-32l-128 0c-17.7 0-32 14.3-32 32zm0 288l0 32 32 0 0-16c0-8.8 7.2-16 16-16s16 7.2 16 16l0 16 64 0 0-16c0-8.8 7.2-16 16-16s16 7.2 16 16l0 16 32 0 0-32c0-8.8-7.2-16-16-16l-160 0c-8.8 0-16 7.2-16 16zm24-272c0-3.4 2.2-6.4 5.5-7.3l21.2-6 6-21.2c.9-3.3 3.9-5.5 7.3-5.5s6.4 2.2 7.3 5.5l6 21.2 21.2 6c3.3 .9 5.5 3.9 5.5 7.3s-2.2 6.4-5.5 7.3l-21.2 6-6 21.2c-.9 3.3-3.9 5.5-7.3 5.5s-6.4-2.2-7.3-5.5l-6-21.2-21.2-6c-3.3-.9-5.5-3.9-5.5-7.3zM335.5 351.6c9.8-6.3 19.1-13.3 27.7-21.1c7.9 4.9 15.3 10.3 22.3 16.3l-22.7 22.7c-8.4-6.9-17.5-12.9-27.3-17.9zm21 140.5l18.7-74.9c2.1-8.4 6.4-16.1 12.6-22.3L541.5 241.2c18.8-18.7 49.2-18.7 67.9 0l17.4 17.4c18.7 18.8 18.7 49.2 0 67.9L473.1 480.2c-6.2 6.1-13.9 10.5-22.3 12.6l-74.9 18.7c-5.5 1.4-11.2-.2-15.2-4.2s-5.6-9.7-4.2-15.2zM394 474l49-12.2c2.8-.7 5.3-2.1 7.4-4.2L556.7 351.3l-40-40c-35.3 35.4-70.8 70.9-106.2 106.3c-2 2-3.5 4.6-4.2 7.4L394 474zm22-346c0-8.8 7.2-16 16-16s16 7.2 16 16l0 96c0 8.8-7.2 16-16 16s-16-7.2-16-16l0-96zM539.3 288.6l40 40 24.8-24.8c6.2-6.2 6.2-16.4 0-22.6l-17.3-17.4c-6.2-6.2-16.4-6.2-22.6 0l-24.9 24.8z"/></svg>